<svg width="32" height="36" viewBox="0 0 32 36" fill="none" xmlns="http://www.w3.org/2000/svg">
<path d="M16.455 0C15.0743 0 13.955 1.11929 13.955 2.5V13.6661L4.62944 8.25545L4.62005 8.25C3.42431 7.55964 1.89534 7.96933 1.20498 9.16506C0.514627 10.3608 0.924315 11.8898 2.12005 12.5801L11.4158 17.9734L2.20506 23.3349C1.00932 24.0253 0.599637 25.5543 1.28999 26.75C1.98035 27.9457 3.50932 28.3554 4.70506 27.6651L4.72072 27.6559L13.955 22.2807V33.5C13.955 34.8807 15.0743 36 16.455 36C17.8357 36 18.955 34.8807 18.955 33.5V22.3476L28.1106 27.6596L28.12 27.6651C29.3158 28.3554 30.8448 27.9457 31.5351 26.75C32.2255 25.5543 31.8158 24.0253 30.62 23.3349L21.3669 17.9663L30.6201 12.5801C31.8158 11.8898 32.2255 10.3608 31.5352 9.16506C30.8448 7.96933 29.3158 7.55964 28.1201 8.25L28.1044 8.25912L18.955 13.5849V2.5C18.955 1.11929 17.8357 0 16.455 0Z" fill="#8FF7FF"/>
</svg>
