<?xml version="1.0" encoding="UTF-8"?><svg id="a" xmlns="http://www.w3.org/2000/svg" viewBox="0 0 37 37"><defs><style>.cls-1{fill:#00f15a;}.cls-1,.cls-2{fill-rule:evenodd;}</style></defs><path class="cls-1" d="m18.5,0C26.72,0,33.69,5.36,36.1,12.78c.58,1.8.9,3.72.9,5.72,0,6.15-3,11.6-7.63,14.97-3.05,2.22-6.81,3.53-10.87,3.53-3.83,0-7.39-1.16-10.34-3.16C3.24,30.52,0,24.89,0,18.5c0-2,.32-3.92.9-5.72C3.31,5.36,10.28,0,18.5,0Zm0,11c1.55,0,3,.47,4.19,1.28,1.37.93,2.42,2.29,2.94,3.9.24.73.37,1.51.37,2.32s-.13,1.59-.37,2.32c-.49,1.5-1.44,2.8-2.68,3.72s-2.78,1.46-4.45,1.46c-1.55,0-3-.47-4.19-1.28s-2.15-1.95-2.72-3.3c-.38-.9-.59-1.88-.59-2.92,0-.81.13-1.59.37-2.32.49-1.52,1.46-2.83,2.73-3.75s2.76-1.43,4.41-1.43h0Z"/><path class="cls-2" d="m18.48,0c8.22,0,15.19,5.36,17.6,12.78.58,1.8.9,3.72.9,5.72,0,6.39-3.24,12.02-8.14,15.34-2.95,2-6.51,3.16-10.34,3.16-4.06,0-7.82-1.31-10.87-3.53C3,30.1,0,24.65,0,18.5c0-2,.32-3.92.9-5.72l10.46,3.4c-.24.73-.37,1.51-.37,2.32s.13,1.59.37,2.32c.48,1.51,1.44,2.8,2.68,3.72s2.78,1.46,4.45,1.46c1.55,0,2.99-.47,4.19-1.28s2.15-1.95,2.72-3.3c.38-.9.59-1.88.59-2.92,0-.81-.13-1.59-.37-2.32-.5-1.52-1.49-2.85-2.73-3.75s-2.76-1.43-4.41-1.43"/></svg>