<svg width="36" height="29" viewBox="0 0 36 29" fill="none" xmlns="http://www.w3.org/2000/svg">
<path d="M15 7.76395C15 11.9061 11.6421 15.2639 7.5 15.2639C5.54777 15.2639 3.76976 14.5181 2.43539 13.2957C2.28446 13.1574 2.13919 13.0131 2 12.863C0.758825 11.5249 0 9.73303 0 7.76395C0 3.62181 3.35786 0.263947 7.5 0.263947C9.72125 0.263947 11.717 1.22957 13.0903 2.76395C14.2779 4.09084 15 5.84306 15 7.76395Z" fill="#FFFF00"/>
<path d="M36 7.76395C36 10.2187 34.8207 12.3979 32.9978 13.7661C31.7447 14.7067 30.1874 15.2639 28.5 15.2639C24.3579 15.2639 21 11.9061 21 7.76395C21 5.84306 21.7221 4.09084 22.9097 2.76395C24.283 1.22957 26.2788 0.263947 28.5 0.263947C32.6421 0.263947 36 3.62181 36 7.76395Z" fill="#FFFF00"/>
<path d="M15 7.76395C15 11.9061 11.6421 15.2639 7.5 15.2639C5.54777 15.2639 3.76976 14.5181 2.43539 13.2957L17.2929 28.0612C17.6838 28.4497 18.3152 28.4487 18.7049 28.059L32.9978 13.7661C31.7447 14.7067 30.1874 15.2639 28.5 15.2639C24.3579 15.2639 21 11.9061 21 7.76395C21 5.84306 21.7221 4.09084 22.9097 2.76395L18.7071 6.96657C18.3166 7.3571 17.6834 7.3571 17.2929 6.96657L13.0903 2.76395C14.2779 4.09084 15 5.84306 15 7.76395Z" fill="#FFFF00"/>
</svg>
