<svg width="36" height="29" viewBox="0 0 36 29" fill="none" xmlns="http://www.w3.org/2000/svg">
<path d="M0 7.5C0 3.35786 3.35786 0 7.5 0C9.72125 0 11.717 0.965627 13.0903 2.5L17.2929 6.70263C17.6834 7.09315 18.3166 7.09315 18.7071 6.70263L22.9097 2.5C24.283 0.965627 26.2787 0 28.5 0C32.6421 0 36 3.35786 36 7.5C36 9.92926 34.8451 12.0888 33.0543 13.4594C33.0168 13.4881 32.981 13.519 32.9477 13.5523L18.7049 27.7951C18.3152 28.1848 17.6838 28.1857 17.2929 27.7973L2.43539 13.0318C2.28446 12.8935 2.13919 12.7491 2 12.5991C0.758825 11.2609 0 9.46908 0 7.5Z" fill="#FFFF00"/>
</svg>