<?xml version="1.0" encoding="UTF-8"?><svg id="a" xmlns="http://www.w3.org/2000/svg" viewBox="0 0 37 37"><defs><style>.b{fill:#00f15a;}.b,.c{fill-rule:evenodd;}</style></defs><path class="c" d="M18.5,0C8.28,0,0,8.28,0,18.5s8.28,18.5,18.5,18.5,18.5-8.28,18.5-18.5S28.72,0,18.5,0Zm0,26c-4.14,0-7.5-3.36-7.5-7.5s3.36-7.5,7.5-7.5,7.5,3.36,7.5,7.5-3.36,7.5-7.5,7.5Z"/><path class="b" d="M18.5,11c-1.65,0-3.17,.53-4.41,1.43s-2.23,2.23-2.73,3.75c-.24,.73-.37,1.51-.37,2.32,0,1.04,.21,2.02,.59,2.92,.57,1.35,1.52,2.49,2.72,3.3l-6.15,9.12C3.24,30.52,0,24.89,0,18.5c0-2,.32-3.92,.9-5.72C3.31,5.36,10.28,0,18.5,0"/></svg>