<?xml version="1.0" encoding="utf-8"?>
<!-- Generator: Adobe Illustrator 26.2.1, SVG Export Plug-In . SVG Version: 6.00 Build 0)  -->
<svg version="1.1" id="Layer_1" xmlns="http://www.w3.org/2000/svg" xmlns:xlink="http://www.w3.org/1999/xlink" x="0px" y="0px"
	 viewBox="0 0 45 45" style="enable-background:new 0 0 45 45;" xml:space="preserve">
<style type="text/css">
	.st0{display:none;fill-rule:evenodd;clip-rule:evenodd;fill:none;stroke:#000000;stroke-miterlimit:10;}
	.st1{fill-rule:evenodd;clip-rule:evenodd;fill:none;stroke:#000000;stroke-miterlimit:10;}
	.st2{fill-rule:evenodd;clip-rule:evenodd;fill:#00F15A;}
</style>
<polygon class="st0" points="22.5,12.5 33.4,7.5 32,19.4 40.1,28.2 28.4,30.6 22.5,41 16.6,30.6 4.9,28.2 13,19.4 11.6,7.5 "/>
<polygon class="st0" points="22.5,15 33.4,7.5 29.6,20.2 40.1,28.2 26.9,28.6 22.5,41 18.1,28.6 4.9,28.2 15.4,20.2 11.6,7.5 "/>
<path class="st1" d="M22.5,22.5"/>
<path class="st2" d="M22.5,4c8.2,0,15.2,5.4,17.6,12.8c0.6,1.8,0.9,3.7,0.9,5.7c0,6.2-3,11.6-7.6,15c-3.1,2.2-6.8,3.5-10.9,3.5
	c-3.8,0-7.4-1.2-10.3-3.2C7.2,34.5,4,28.9,4,22.5c0-2,0.3-3.9,0.9-5.7C7.3,9.4,14.3,4,22.5,4z M22.5,15c1.6,0,3,0.5,4.2,1.3
	c1.4,0.9,2.4,2.3,2.9,3.9c0.2,0.7,0.4,1.5,0.4,2.3c0,0.8-0.1,1.6-0.4,2.3c-0.5,1.5-1.4,2.8-2.7,3.7c-1.2,0.9-2.8,1.5-4.5,1.5
	c-1.6,0-3-0.5-4.2-1.3c-1.2-0.8-2.1-2-2.7-3.3c-0.4-0.9-0.6-1.9-0.6-2.9c0-0.8,0.1-1.6,0.4-2.3c0.5-1.5,1.5-2.8,2.7-3.7
	C19.3,15.5,20.9,15,22.5,15z"/>
</svg>
